<?xml version="1.0" encoding="UTF-8" standalone="no"?><svg height="203.47635" viewBox="0 0 350 203.47635" width="350" xmlns="http://www.w3.org/2000/svg"><g transform="matrix(.02975305 0 0 -.02975305 0 203.47635)"><path d="m3271.24 1520.45c0 839.71-680.73 1520.45-1520.45 1520.45-839.727 0-1520.454-680.74-1520.454-1520.45 0-839.731 680.727-1520.45 1520.454-1520.45 839.72 0 1520.45 680.719 1520.45 1520.45m-1520.21-857.45h-.47c-448.28.262-834.232 365.74-811.568 834.14 30.125 622.79 581.158 712.16 770.288 990.63 8.69 13.71 23.91 22.91 41.38 22.91 17.39 0 32.58-9.13 41.3-22.79h.22c189.07-278.58 740.3-367.88 770.4-990.75 22.64-468.4-363.29-833.878-811.55-834.14" fill="#005fb6"/><path d="m1750.47 3435.43c26.11 0 49.78 14.53 61.8 37.91 87.87 155.47 305.51 296.28 535.96 445.4 120.09 77.7 241 162.42 354.73 243.87 486.06 348.14 797.99 893.05 797.99 1507.87 0 19.53-.41 39-1 58.43l-.66 21.91-21.8-2.46c-379.56-42.46-733.24-199.13-1025.99-453.87 1.47 30.07 2.16 59.72 2.16 88.62 0 571.22-251.15 1097.72-689.04 1444.47l-14.15 11.26-14.13-11.26c-437.9-346.75-689.06-873.25-689.06-1444.47 0-28.9.7-58.55 2.16-88.62-292.745 254.74-646.42 411.41-1025.9712 453.87l-21.82427 2.46-.63672-21.91c-.613279-19.43-1.00781-38.9-1.00781-58.43 0-614.82 311.922-1159.73 797.984-1507.87 113.731-81.45 234.636-166.17 354.736-243.87 230.43-149.12 448.08-289.93 535.96-445.4 12.02-23.38 35.69-37.91 61.79-37.91" fill="#52ae32"/><path d="m10966.1 662.039h793v306.852h-430.7v240.309h408.5v306.85h-408.5v232.9h430.7v306.85h-793zm-578.7 942.741c0 118.29-75.8 173.74-255.1 173.74h-31.4v-347.51h31.4c177.5 0 255.1 55.47 255.1 173.77zm72.1-371.56 438.1-571.181h-451l-342 536.061h-3.7v-536.061h-362.29v1393.761h547.09c279.2 0 478.8-140.48 478.8-428.83 0-201.49-116.5-360.47-305-393.75zm-1189.82-146.02c0 151.58-151.56 151.58-229.18 151.58h-105.4v-299.471h46.22c133.11 0 288.36 3.711 288.36 147.891zm-334.58 421.46h38.84c144.18 0 197.77 44.35 197.77 134.93s-49.89 134.93-201.46 134.93h-35.15zm700.61-458.43c0-251.39-194.14-388.191-499.09-388.191h-563.79v1393.761h523.11c266.16 0 408.5-118.3 408.5-362.31 0-140.48-51.76-232.92-153.41-284.66v-3.69c190.39-24.04 284.68-149.74 284.68-354.91zm-3396.22 131.24-147.9 443.63h-3.69l-149.72-443.63zm2027.89 874.33 210.72-1393.761h-362.32l-101.66 802.251h-3.69l-334.56-802.251h-144.17l-319.81 802.251h-3.69l-116.46-802.251h-663.69l-90.59 242.152h-499.08l-96.12-242.152h-384.51l536.07 1393.761h395.58l467.7-1241.749 210.81 1241.749h356.74l282.83-744.94 299.41 744.94zm-3336.33-538.22h-522.15v536.93h-361.67v-1391.182h361.67v570.122h522.15v-570.122h361.61v1391.182h-361.61zm6486.55 1952.73h-284.7v-1095.42h626.2v241.17h-341.5zm-393.8-241.15v241.16h-623.3v-1095.43h623.3v241.16h-338.5v188.86h321.1v241.2h-321.1v183.05zm-1364.41-446.02-116.22 348.67h-2.92l-117.69-348.67zm-956.1 332.69c0 92.98-59.59 136.56-200.52 136.56h-24.67v-273.12h24.67c139.49 0 200.52 43.57 200.52 136.56zm1104.28-740.94-71.19 190.33h-392.26l-75.56-190.33h-518.81l-268.78 421.33h-2.87v-421.33h-284.75v1095.43h430.03c219.36 0 376.26-110.43 376.26-337.05 0-158.37-91.5-283.32-239.73-309.45l252.52-329.2 375.25 975.7h310.92l412.6-1095.43zm-1923.8 0v854.27h235.35v241.16h-755.5v-241.16h235.38v-854.27zm-887.93 425.69-521.57 669.74h-284.76v-1095.43h284.76v671.22h2.91l521.6-671.22h284.71v1095.43h-284.71v-669.74zm-1505.34 430.03c-159.81 0-308-132.22-308-289.13 0-187.39 138.03-326.86 309.44-326.86 174.36 0 309.47 143.81 309.47 326.86 0 154.03-143.83 289.13-310.91 289.13zm1.44 276.04c310.9 0 605.83-228.09 605.83-563.71 0-383.54-289.1-604.38-597.1-604.38-396.6 0-614.53 292.03-614.53 591.3 0 287.69 183.06 422.78 241.18 463.46 133.61 92.98 268.78 113.33 364.62 113.33zm-925.57-1160.82c66.78 0 104.57 5.81 251.33 50.85v341.43c-62.46-74.12-154-116.24-245.56-116.24-171.41 0-296.36 119.12-296.36 297.83 0 175.8 123.48 303.63 292.01 303.63 98.8 0 193.23-43.58 249.91-120.57v341.42c-85.75 34.86-168.56 55.2-260.05 55.2-296.41 0-578.22-236.81-578.22-578.22 0-108.97 24.66-204.85 71.18-286.23 101.67-174.34 308-289.1 515.76-289.1zm6805.93 2947.24v-920.17h-4l-716.5 920.17h-391.3v-1504.99h391.3v922.14h4l716.5-922.14h391.2v1504.99zm-2471.13-726.56c0-257.49 189.65-449.1 425.18-449.1 239.53 0 425.13 197.6 425.13 449.1 0 211.6-197.63 397.2-427.13 397.2-219.57 0-423.18-181.62-423.18-397.2zm-407.18-15.96c0 395.19 251.51 580.84 331.36 636.72 183.6 127.75 369.26 155.68 501 155.68 427.12 0 832.35-313.37 832.35-774.44 0-526.94-397.24-830.33-820.38-830.33-544.9 0-844.33 401.21-844.33 812.37zm-99.8 742.52h-391.21v-1504.98h391.21zm-870.26-1544.91c91.83 0 143.7 8 345.32 69.85v469.07c-85.85-101.8-211.59-159.68-337.35-159.68-235.52 0-407.17 163.68-407.17 409.19 0 241.51 169.65 417.14 401.19 417.14 135.72 0 265.48-59.87 343.33-165.65v469.05c-117.76 47.91-231.54 75.85-357.29 75.85-407.17 0-794.41-325.35-794.41-794.41 0-149.7 33.94-281.43 97.78-393.19 139.75-239.53 423.17-397.22 708.6-397.22zm-1237.58 0c91.83 0 143.71 8 345.32 69.85v469.07c-85.84-101.8-211.58-159.68-337.34-159.68-235.53 0-407.17 163.68-407.17 409.19 0 241.51 169.65 417.14 401.17 417.14 135.74 0 265.48-59.87 343.34-165.65v469.05c-117.76 47.91-231.55 75.85-357.28 75.85-407.18 0-794.41-325.35-794.41-794.41 0-149.7 33.92-281.43 97.78-393.19 139.75-239.53 423.19-397.22 708.59-397.22zm-1654.71 600.8h325.36l-159.72 479.03h-3.99zm-211.6-560.88h-415.16l578.85 1504.99h427.14l566.89-1504.99h-417.2l-97.81 261.47h-538.92zm4861.18 1635.78-148.72 134.24 351.02 379.13 227.1-200.89z" fill="#707070"/></g></svg>